<?xml version="1.0" standalone="no"?><!DOCTYPE svg PUBLIC "-//W3C//DTD SVG 1.1//EN" "http://www.w3.org/Graphics/SVG/1.1/DTD/svg11.dtd"><svg t="1712906263814" class="icon" viewBox="0 0 1024 1024" version="1.1" xmlns="http://www.w3.org/2000/svg" p-id="10495" data-darkreader-inline-fill="" xmlns:xlink="http://www.w3.org/1999/xlink" width="200" height="200"><path d="M435.6 151c25-5.3 51-8 77.6-8 25.6 0 50.6 2.6 74.7 7.4" fill="#F9A825" p-id="10496" data-darkreader-inline-fill="" style="--darkreader-inline-fill: #f9ae35;"></path><path d="M441.7 180.4l-12.4-58.7c53.7-11.3 110.7-11.5 164.5-0.7l-11.9 58.8c-45.9-9.2-94.5-9-140.2 0.6z" fill="#F57F17" p-id="10497" data-darkreader-inline-fill="" style="--darkreader-inline-fill: #f68a2c;"></path><path d="M131.7 653.8h-0.4c-34.4-0.5-66.6-14.2-90.8-38.7C16.3 590.6 3 558.1 3 523.7c0-34.3 13.2-66.7 37.3-91.2 24-24.4 56-38.3 90.3-39 8-0.2 15.8 2.9 21.6 8.5 5.8 5.6 9 13.3 9 21.4l0.6 200.3c0 8-3.2 15.8-8.9 21.4-5.7 5.6-13.3 8.7-21.2 8.7z m-30.4-192.5C78.6 473 63 496.7 63 523.7c0 27.2 15.7 51 38.6 62.6l-0.3-125zM891.8 653.9c-16.6 0-30.1-13.4-30.1-30V423.5c0-16.6 13.4-30 30-30 71.9 0 130.2 58.4 130.2 130.2 0 71.8-58.3 130.2-130.1 130.2z m29.9-193.7v126.9c23.8-11.3 40.2-35.5 40.2-63.5 0-27.9-16.4-52.1-40.2-63.4z" fill="#F57F17" p-id="10498" data-darkreader-inline-fill="" style="--darkreader-inline-fill: #bc5c08;"></path><path d="M513.1 923.9c-54.7 0-107.8-10.7-157.8-31.9-48.3-20.4-91.6-49.7-128.9-86.9-37.2-37.2-66.5-80.6-86.9-128.9-21.2-50-31.9-103.1-31.9-157.8 0-79.1 22.8-155.7 65.9-221.6 55.3-84.6 139.3-145.2 236.6-170.6 12.6-3.3 25.9 1.9 32.9 12.9s6.1 25.2-2.2 35.3c-22.1 26.7-34.7 64.4-34.7 103.4 0 20 3.2 39.4 9.4 57.5 17.4 50.6 55.7 83.2 97.6 83.2 41.2 0 79.3-32 97-81.4 6.7-18.6 10-38.6 10-59.3 0-39-12.7-76.7-34.7-103.4-8.3-10-9.2-24.3-2.2-35.3 7-11 20.3-16.2 32.9-12.9 96.2 25.2 179.6 84.9 234.9 168.1 44.2 66.5 67.6 144 67.6 224.2 0 54.7-10.7 107.8-31.9 157.8-20.4 48.3-49.7 91.6-86.9 128.9-37.2 37.2-80.6 66.5-128.9 86.9-49.9 21.1-103 31.8-157.8 31.8z m-157.6-713c-53 27.2-98.5 67.9-131.7 118.8-36.7 56.1-56.1 121.4-56.1 188.8 0 190.5 155 345.5 345.5 345.5s345.5-155 345.5-345.5c0-68.3-19.9-134.4-57.5-191-33.2-49.8-78.2-89.8-130.4-116.6 6.2 21.2 9.4 43.7 9.4 66.8 0 27.6-4.6 54.3-13.5 79.5-26.3 73.6-86.6 121.2-153.5 121.2-67.9 0-128.5-48.5-154.3-123.7-8.4-24.4-12.7-50.3-12.7-77.1-0.1-23 3.1-45.5 9.3-66.7z" fill="#F57F17" p-id="10499" data-darkreader-inline-fill="" style="--darkreader-inline-fill: #bc5c08;"></path><path d="M387.2 345.1c-22.7 20.8-50.7 33-81 33-43.6 0-82.4-25.3-107.5-64.8 50.2-76.8 127.9-134.1 219.1-158" fill="#F9A825" p-id="10500" data-darkreader-inline-fill="" style="--darkreader-inline-fill: #b47105;"></path><path d="M306.2 408.1c-26.6 0-53-7.6-76.4-22.1-21.9-13.5-41.4-33.1-56.4-56.7-6.3-9.9-6.2-22.7 0.2-32.5 55.3-84.6 139.3-145.2 236.6-170.6l15.2 58c-76.2 20-142.9 65.3-189.8 128.5 19.5 22.7 44.5 35.3 70.6 35.3 21.8 0 42.8-8.7 60.8-25.2l40.5 44.3c-29.3 26.9-64.3 41-101.3 41z" fill="#F57F17" p-id="10501" data-darkreader-inline-fill="" style="--darkreader-inline-fill: #bc5c08;"></path><path d="M638.4 347.2c22.3 19.5 49.4 30.9 78.7 30.9 44.4 0 83.9-26.4 109-67.2-50.3-75.6-127.3-132-217.5-155.7" fill="#F9A825" p-id="10502" data-darkreader-inline-fill="" style="--darkreader-inline-fill: #b47105;"></path><path d="M717.1 408.1c-35.7 0-69.8-13.3-98.5-38.4l39.5-45.1c17.6 15.4 38 23.5 58.9 23.5 27 0 52.6-13.4 72.3-37.2-46.8-62.3-113-106.9-188.3-126.6l15.2-58c96.2 25.2 179.6 84.9 234.9 168.1 6.5 9.7 6.7 22.3 0.6 32.3-14.9 24.3-34.6 44.6-56.8 58.6-23.8 14.9-50.7 22.8-77.8 22.8zM412.6 532.6c0 21.8-17.6 39.4-39.4 39.4s-39.4-17.6-39.4-39.4c0-21.8 17.6-39.4 39.4-39.4s39.4 17.7 39.4 39.4zM688.9 532.6c0 21.8-17.6 39.4-39.4 39.4-21.8 0-39.4-17.6-39.4-39.4 0-21.8 17.6-39.4 39.4-39.4 21.8 0 39.4 17.7 39.4 39.4zM511.4 807.4c-94.4 0-171.2-76.8-171.2-171.2h60c0 61.3 49.9 111.2 111.2 111.2s111.2-49.9 111.2-111.2h60c0 94.3-76.8 171.2-171.2 171.2z" fill="#F57F17" p-id="10503" data-darkreader-inline-fill="" style="--darkreader-inline-fill: #bc5c08;"></path><path d="M650.2 277.8c0 24.7-4.2 48.2-11.8 69.4C617 406.9 569 448.5 513.1 448.5c-56.5 0-105-42.6-126-103.4-7.1-20.7-11.1-43.4-11.1-67.3 0-48.1 16-91.5 41.6-122.5 5.9-1.5 11.8-2.9 17.8-4.2 25-5.3 51-8 77.6-8 25.6 0 50.6 2.6 74.7 7.4 7 1.4 13.9 3 20.7 4.8 25.8 31 41.8 74.4 41.8 122.5z" fill="#F9A825" p-id="10504" data-darkreader-inline-fill="" style="--darkreader-inline-fill: #b47105;"></path><path d="M513.1 478.5c-67.9 0-128.5-48.5-154.3-123.7-8.4-24.4-12.7-50.3-12.7-77.1 0-53.5 17.2-103.9 48.5-141.7 4-4.8 9.4-8.3 15.5-9.9 6.4-1.7 12.9-3.2 19.3-4.6 53.5-11.3 110.5-11.5 164.4-0.6 7.5 1.5 15 3.2 22.4 5.2 6.1 1.6 11.5 5.1 15.5 9.9 31.3 37.8 48.5 88.1 48.5 141.7 0 27.6-4.6 54.3-13.5 79.5-26.4 73.7-86.6 121.3-153.6 121.3z m-78-296.7c-18.5 26-29 60.4-29 95.9 0 20 3.2 39.4 9.4 57.5 17.4 50.6 55.7 83.2 97.6 83.2 41.2 0 79.3-32 97-81.4 6.7-18.6 10-38.6 10-59.3 0-35.5-10.5-69.9-29-95.9-3.1-0.7-6.2-1.4-9.2-2-46-9.3-94.5-9.1-140.2 0.5-2.2 0.6-4.4 1-6.6 1.5z" fill="#F57F17" p-id="10505" data-darkreader-inline-fill="" style="--darkreader-inline-fill: #bc5c08;"></path></svg>