<?xml version="1.0" standalone="no"?><!DOCTYPE svg PUBLIC "-//W3C//DTD SVG 1.1//EN" "http://www.w3.org/Graphics/SVG/1.1/DTD/svg11.dtd"><svg t="1712906397046" class="icon" viewBox="0 0 1024 1024" version="1.1" xmlns="http://www.w3.org/2000/svg" p-id="17698" xmlns:xlink="http://www.w3.org/1999/xlink" width="200" height="200"><path d="M293.1712 32.0512c17.8688-7.168 37.2736 0.6656 51.0976 12.4928 58.5728 48.2304 124.3648 86.6816 191.5904 121.4464 87.2448 44.8 176.3328 86.7328 269.1072 118.9376 42.3936 15.2576 85.4528 29.0304 130.1504 35.5328 30.464 4.5568 51.1488 40.2944 37.0688 68.4544-63.0272 140.288-138.1376 277.76-243.8144 390.8608-85.1456 93.184-194.048 168.4992-318.0544 198.0928-40.3456 10.8032-82.176 14.4384-123.8016 16.4352-15.3088 1.2288-31.2832-3.9424-41.7792-15.5136-92.1088-113.0496-139.1616-260.0448-134.6048-405.4528 3.4304-182.016 71.424-355.1232 153.344-515.072 6.1952-12.032 16.8448-21.76 29.696-26.2144m-26.8288 336.9984c-4.608 3.072-14.08 3.5328-14.08 10.5472 5.9392 40.9088 25.5488 82.7392 62.0544 104.8064 35.584 21.4016 79.2576 29.0304 120.1664 22.9888-0.4096-49.8176-24.4736-100.352-67.3792-127.232-29.0816-20.224-67.9424-24.32-100.7616-11.1104m309.0432 145.7664c-21.2992 6.2976-44.1856 14.848-58.5216 32.5632 4.0448 14.2336 17.664 23.6544 27.136 34.6112 36.3008 38.0416 94.3616 60.5184 145.5104 41.1136 13.9776-5.9904 30.3616-9.5232 41.0112-20.9408 0.4608-18.944-11.264-36.0448-22.016-50.8416-31.3344-38.5024-86.784-48.1792-133.12-36.5056m-359.5776 191.7952c10.2912 53.1968 23.6032 108.1344 56.832 152.1664 20.8896 28.0064 56.064 43.2128 90.7776 41.3184 56.064-1.8432 105.4208-32.8192 148.8896-65.6384 6.0416-4.3008 11.52-13.4656 4.9152-20.0192-109.7216-7.8848-213.5552-59.0336-293.0688-134.0928-4.8128 7.8336-11.3664 16.4352-8.3456 26.2656z" p-id="17699" fill="#3e0978"></path></svg>