<?xml version="1.0" standalone="no"?><!DOCTYPE svg PUBLIC "-//W3C//DTD SVG 1.1//EN" "http://www.w3.org/Graphics/SVG/1.1/DTD/svg11.dtd"><svg t="1712904743875" class="icon" viewBox="0 0 1024 1024" version="1.1" xmlns="http://www.w3.org/2000/svg" p-id="9204" data-darkreader-inline-fill="" xmlns:xlink="http://www.w3.org/1999/xlink" width="200" height="200"><path d="M209.880531 45.003504l51.693214-13.683498h88.182541l162.243714-6.081554h65.814584L641.670907 57.166613l69.937878 25.846607 57.774769 42.570882 56.25438 42.570883L854.525318 227.450142l9.122332 48.652437-7.601943 47.132048s-19.765052 34.968939-19.765053 42.570882 3.040777 45.611659 1.520389 50.172825-19.765052 41.050494-19.765053 41.050494L810.434047 534.568649l-27.366995 36.489328-47.132049 48.652436 6.081555 53.213603s1.520389 24.326218 1.520389 34.968939-9.122332 62.335935-9.122332 62.335935l-18.244664 77.539821-45.61166 9.122332H521.560204l-54.733992 13.683498L407.531055 823.442492l-60.815546 13.683498-51.693214-27.366995-30.407773-44.091271-95.784485-79.06021s-10.642721-62.335935-7.601943-68.417489S164.268871 476.79388 164.268871 476.79388v-118.590314l9.122332-158.12042 36.489328-155.079642z" fill="#99D9E6" p-id="9205" data-darkreader-inline-fill="" style="--darkreader-inline-fill: #195966;"></path><path d="M355.025345 127.88293l-32.636054 61.893198-25.846607 58.73687-31.928162 87.157192L287.420352 417.14356l9.122332 79.578359 6.081554 73.893321 50.172826 55.242409 117.069926-11.663206 115.549537-17.052679 62.335935-28.421537s41.050494-71.999525 42.570882-77.683346 33.44855-126.947587 33.44855-126.947587l18.244664-41.684191v-68.210717l-15.203887-104.211087-47.948192-73.817909L542.845645 49.56467h-94.264096l-92.743708 39.789179L354.317452 112.090349l0.707893 15.792581z" fill="#3854A5" p-id="9206" data-darkreader-inline-fill="" style="--darkreader-inline-fill: #2d4384;"></path><path d="M345.195121 651.638575l54.733991-25.77971 51.477927-9.824143 86.817841-11.927145L585.416527 597.142981l56.25438 40.812096 15.203887 42.570882-15.203887 30.407773-31.928162 18.244664-57.774768 18.244664H488.111654l-48.652437-7.601943-68.417489-21.285441z" fill="#FFFFFF" p-id="9207" data-darkreader-inline-fill="" style="--darkreader-inline-fill: #181a1b;"></path><path d="M594.538859 510.309328l-45.539897-45.282039 16.652513 0.239613 28.887384-0.57045-54.519921-54.209761-25.16304-25.019516-48.029686-47.756016h-7.601943l-48.652437 51.693214-22.805829 39.530105-24.326219 28.887385s17.304455 2.591959 31.316358 4.608602l-6.990139 12.115673-24.326219 28.887384s27.196712 4.073425 41.004274 5.980601L387.766003 538.324617l-24.326219 28.887385s41.050494 6.148452 47.892243 6.874589c2.902118 0.308943 12.778563 0.497471 23.539265 0.553421 14.60911 0.076628 30.848078-0.096089 33.475309-0.553421 4.561166-0.793035 57.774769 0 57.774769 0l39.530105 0.57045 28.887384-0.57045-54.519921-54.209761-9.558987-9.50547 35.19274 0.507201 28.886168-0.569233z" fill="#5ABA47" p-id="9208" data-darkreader-inline-fill="" style="--darkreader-inline-fill: #5a9337;"></path><path d="M434.898051 597.142981V610.588082h44.091271v-35.929825l-44.11803-0.018245" fill="#9E8A31" p-id="9209" data-darkreader-inline-fill="" style="--darkreader-inline-fill: #d1be69;"></path><path d="M532.564169 777.096181l-61.958879 16.89091 14.600597 8.013056 24.837069 14.76115-74.177938 20.219952-34.235503 9.332754-65.346305 17.81409-6.610649-3.753536-16.782659-68.975776-0.312591-45.635985-6.890402-37.13154s16.326541 6.29076 29.507703 11.455216l-0.097305-13.987575-6.890401-37.130324s25.661728 9.886175 38.61179 15.04455l-0.228666-33.374355-6.890402-37.13154s38.733421 14.925351 45.04121 17.669349c2.675884 1.16401 11.356695 5.877214 20.742966 11.141408 12.740857 7.147043 26.778301 15.315787 28.8363 17.008891 3.574738 2.942256 50.240939 28.527356 50.240938 28.527357l34.655131 19.025535 24.839502 14.758717-74.176722 20.219953-13.006012 3.546762 30.854159 16.935913 24.837069 14.755068z" fill="#8E51A0" p-id="9210" data-darkreader-inline-fill="" style="--darkreader-inline-fill: #724180;"></path><path d="M436.617914 622.762138l6.639842-11.692397 38.340553 21.770749-17.741112 31.244595-38.373393-21.768317" fill="#8E51A0" p-id="9211" data-darkreader-inline-fill="" style="--darkreader-inline-fill: #a56db5;"></path><path d="M568.692252 228.577662l-49.080578-26.443816-49.606025 25.439143 9.982264-54.848324-39.524023-39.318467 55.249707-7.45477 25.180068-49.739818 24.163233 50.240938 55.085505 8.578641-40.314625 38.505971z" fill="#FEED5E" p-id="9212" data-darkreader-inline-fill="" style="--darkreader-inline-fill: #feed5c;"></path><path d="M565.79135 225.000492l-46.526325-25.103441-47.057853 24.096335 9.496956-52.008238-37.458728-37.306689 52.398675-7.040007 23.905374-47.153942 22.886107 47.657494 52.234472 8.165096-38.254195 36.492976z" fill="#FEEE71" p-id="9213" data-darkreader-inline-fill="" style="--darkreader-inline-fill: #feed69;"></path><path d="M562.892881 221.424538l-43.976937-23.764283-44.506033 22.754745 9.011648-49.168153-35.394648-35.298559 49.546425-6.621597 22.633114-44.570497 21.607763 45.075266 49.382224 7.75155-36.190116 34.481198z" fill="#FEF080" p-id="9214" data-darkreader-inline-fill="" style="--darkreader-inline-fill: #feef73;"></path><path d="M559.993196 217.848584l-41.423901-22.425125-41.957861 21.411938 8.526339-46.326851-33.329351-33.287997 46.694176-6.206835 21.359636-41.98462 20.331853 42.490606 46.528758 7.340436-34.127252 32.466987z" fill="#FEF18E" p-id="9215" data-darkreader-inline-fill="" style="--darkreader-inline-fill: #feef7d;"></path><path d="M557.092295 214.272629l-38.872081-21.085966-39.407257 20.069131 8.041031-43.486765-31.264056-31.277435 43.843144-5.790856 20.083725-39.39996 19.054727 39.908378 43.677725 6.92689-32.065604 30.455209z" fill="#FEF39C" p-id="9216" data-darkreader-inline-fill="" style="--darkreader-inline-fill: #fef087;"></path><path d="M554.193826 210.696675l-36.320261-19.746807-36.857869 18.726322 7.555723-40.645462-29.19876-29.268089 40.989678-5.374878 18.810248-36.814083 17.778817 37.323717 40.82426 6.514561-30.002742 28.442215z" fill="#FEF4AA" p-id="9217" data-darkreader-inline-fill="" style="--darkreader-inline-fill: #fef191;"></path><path d="M551.292924 207.119505l-33.76844-18.406433-34.306049 17.384732 7.069199-37.806593-27.134681-27.256311 38.138646-4.9589 17.536771-34.230638 16.500473 34.741489 37.973227 6.101016-27.941094 26.430436z" fill="#FEF6B8" p-id="9218" data-darkreader-inline-fill="" style="--darkreader-inline-fill: #fef29b;"></path><path d="M548.394455 203.543551l-31.217836-17.067275-31.756662 16.041925 6.585108-34.96529-25.069385-25.246966 35.286397-4.542921 16.262077-31.644762 15.224563 32.158045 35.118545 5.68747-25.877014 24.418658z" fill="#FFF7C6" p-id="9219" data-darkreader-inline-fill="" style="--darkreader-inline-fill: #fff2a4;"></path><path d="M545.49477 199.967597l-28.667232-15.728117-29.204841 14.699118 6.098583-32.125204-23.004089-23.236404 32.434147-4.126943 14.9886-29.060101 13.946221 29.5746 32.268728 5.276357-23.815368 22.404447z" fill="#FFF9D3" p-id="9220" data-darkreader-inline-fill="" style="--darkreader-inline-fill: #fff4ad;"></path><path d="M542.593869 196.390426l-26.114196-14.387742-26.655454 13.356311 5.613275-29.283902-20.938792-21.227058 29.583114-3.709749 13.713906-26.475439 12.67031 26.989939 29.415264 4.864027-21.752505 20.392669z" fill="#FFFBE1" p-id="9221" data-darkreader-inline-fill="" style="--darkreader-inline-fill: #fff5b7;"></path><path d="M539.694183 192.814472l-23.562375-13.0498-24.106066 12.015936 5.129183-26.443816-18.874713-19.217712 26.730865-3.29377 12.441645-23.890779 11.391968 24.407711 26.563014 4.450482-19.688425 18.379674z" fill="#FFFDEE" p-id="9222" data-darkreader-inline-fill="" style="--darkreader-inline-fill: #fff8c0;"></path><path d="M536.794498 189.238518l-21.010555-11.709425-21.555462 10.671912 4.642659-23.60373-16.809417-17.205934 23.879832-2.877792 11.166951-21.307334 10.114841 21.825483 23.710766 4.038152-17.626778 16.36668z" fill="#FFFFFF" p-id="9223" data-darkreader-inline-fill="" style="--darkreader-inline-fill: #e8e6e3;"></path><path d="M507.623713 297.38802a12.680041 9.122332 0 1 0 25.360083 0 12.680041 9.122332 0 1 0-25.360083 0Z" fill="#FFFFFF" p-id="9224" data-darkreader-inline-fill="" style="--darkreader-inline-fill: #e8e6e3;"></path><path d="M612.822445 259.378304a12.680041 9.122332 0 1 0 25.360082 0 12.680041 9.122332 0 1 0-25.360082 0Z" fill="#FFFFFF" p-id="9225" data-darkreader-inline-fill="" style="--darkreader-inline-fill: #e8e6e3;"></path><path d="M412.803763 277.622967a12.680041 9.122332 0 1 0 25.360083 0 12.680041 9.122332 0 1 0-25.360083 0Z" fill="#FFFFFF" p-id="9226" data-darkreader-inline-fill="" style="--darkreader-inline-fill: #e8e6e3;"></path><path d="M587.462362 373.407452a12.680041 9.122332 0 1 0 25.360083 0 12.680041 9.122332 0 1 0-25.360083 0Z" fill="#FFFFFF" p-id="9227" data-darkreader-inline-fill="" style="--darkreader-inline-fill: #e8e6e3;"></path><path d="M363.439784 306.510352a12.680041 9.122332 0 1 0 25.360083 0 12.680041 9.122332 0 1 0-25.360083 0Z" fill="#FFFFFF" p-id="9228" data-darkreader-inline-fill="" style="--darkreader-inline-fill: #e8e6e3;"></path><path d="M235.727138 168.154985L226.604806 203.123924l118.590315 9.122331zM696.404899 212.246255L804.352493 241.13364v-51.895122z" fill="#FEEA3D" p-id="9229" data-darkreader-inline-fill="" style="--darkreader-inline-fill: #7d7001;"></path></svg>